M48
INCH
T01C0.016
T02C0.031
T03C0.039
T04C0.043
T05C0.051
T06C0.059
T07C0.098
T08C0.118
T09C0.138
%
T01
X+102750Y+100500
X+101250Y+101250
X+101000Y+107875
X+099250Y+104375
X+107086Y+099901
X+110039
X+100000Y+120669
X+099842Y+115905
X+100393Y+120669
X+099311Y+111023
X+106299Y+115590
X+108346Y+115905
X+110236Y+115590
X+101732
X+104409Y+115905
X+106141Y+114330
X+104566Y+114645
X+106141Y+114960
X+104566Y+115118
Y+116377
X+106141Y+116535
X+104566Y+116850
X+106141Y+117165
Y+119055
X+104566Y+118740
X+106141Y+118425
X+104566Y+114015
X+106141Y+113700
X+104566Y+113385
X+106141Y+113070
X+104566Y+112755
X+106141Y+112440
X+104566Y+118110
X+106141Y+117795
X+104566Y+117480
X+114960Y+115905
X+123129Y+121358
X+122145Y+120374
X+121161Y+119389
X+119881Y+118110
X+120078Y+115354
X+121555Y+114173
X+121161Y+118503
X+120964Y+115551
X+119192Y+116141
X+120374Y+118602
X+119389Y+117618
X+119586Y+115846
X+118110Y+116338
X+122736Y+112696
X+121948Y+113484
X+120570Y+114862
X+121850Y+119980
X+122637Y+120866
X+113070Y+115905
Y+114330
X+112598Y+114645
X+113070Y+114960
X+112598Y+115275
X+112440Y+116220
X+113070Y+116535
X+112598Y+116850
X+113070Y+117165
Y+119055
X+112598Y+118740
X+113070Y+118425
X+112598Y+114015
X+113070Y+113700
X+112598Y+113385
X+113070Y+113070
X+112598Y+112755
X+113070Y+112440
X+112598Y+118110
X+113070Y+117795
X+112598Y+117480
X+117322Y+111515
X+117125Y+111122
X+121259Y+101870
X+114173Y+105708
X+117500Y+108500
X+117750Y+106000
X+118000Y+108000
X+117322Y+110728
X+115846Y+107578
X+118000Y+101500
X+119500
X+117750Y+099000
X+122750Y+099500
X+117125Y+110334
X+117322Y+109940
X+115452Y+107874
X+123031Y+139566
X+117125
X+115125Y+133000
X+113375
X+111625
X+109125
X+106625
X+105125Y+133625
X+113625Y+133750
X+110125Y+133625
X+107625
X+120125Y+133375
Y+131375
X+120964Y+138484
X+111875Y+133750
X+103500Y+136500
X+117224Y+125787
Y+128346
X+104035Y+128641
X+102460
X+117716Y+125787
Y+128346
X+121948Y+140157
X+121259Y+136318
X+118996
X+132874Y+139566
X+132480
X+125590Y+124803
X+126968Y+123425
X+126574Y+123818
X+134842Y+134744
X+131250Y+128625
X+133366Y+133169
X+124500Y+135250
X+126750Y+128750
X+124250
X+132874Y+123622
X+125295Y+132283
Y+135039
X+125787Y+132283
Y+135039
X+127165Y+132283
X+123523Y+140157
X+124212Y+106988
X+125590Y+108366
X+124606Y+106594
X+125984Y+107972
X+124125Y+104500
X+133464Y+101082
X+126574Y+108759
X+127263Y+110531
X+125295Y+110137
X+134875Y+103500
X+134250Y+098750
X+124704Y+110728
X+127657Y+110925
X+133267Y+117125
X+134251Y+117421
X+135531Y+120177
X+132775Y+117421
X+133070Y+120767
X+132086
X+132874Y+122539
X+128149Y+111417
X+124212Y+111220
X+131594Y+118700
X+133858Y+117125
X+132578Y+117814
X+130314Y+120078
X+132480Y+115748
X+131889Y+115157
X+129625Y+112795
X+130314Y+113582
X+128051Y+122342
X+129429Y+120964
X+124015Y+122244
X+124901Y+123129
X+134350Y+121850
X+133956
X+131299Y+118011
X+124901Y+111712
X+131594Y+117716
X+130905Y+115157
X+128051Y+112204
X+127263Y+121948
X+127755Y+114862
X+128051Y+114566
X+124114Y+121358
X+124212Y+118405
X+123917Y+118700
X+130511Y+119488
X+128641Y+121062
X+123523Y+112204
X+129035Y+112303
X+129921Y+113188
X+130905Y+114173
X+132086Y+118307
X+127559Y+122834
X+124507Y+122637
X+134055Y+116437
X+134350Y+116732
X+136909Y+119389
X+136614Y+119094
X+144685Y+121259
X+135826Y+119881
X+136122Y+119586
X+136000Y+098750
Y+103500
X+138779Y+100492
X+121161Y+095669
X+109055Y+097736
X+135500Y+098375
X+114199Y+097933
X+117750Y+098500
X+122750Y+097500
X+118799Y+095570
T02
X+100000Y+105500
X+102000
X+121750
Y+103500
X+118500Y+134500
Y+135500
X+121750Y+134500
Y+135500
X+132250Y+125875
X+131250
X+134750Y+131500
Y+130500
Y+127500
Y+128500
X+120000Y+097000
Y+098000
Y+099000
Y+100000
Y+101000
Y+107000
Y+108000
Y+109000
Y+106000
Y+102000
Y+103000
Y+104000
Y+105000
Y+096000
X+117000
Y+097000
Y+098000
Y+099000
Y+100000
Y+101000
Y+106000
Y+107000
Y+108000
Y+109000
Y+102000
Y+105000
Y+104000
Y+103000
T03
X+106000Y+122000
Y+123000
X+108000Y+122000
X+109000
X+110000
Y+123000
X+109000
X+108000
X+107000
Y+122000
X+138125Y+124250
Y+123250
Y+122250
Y+121250
Y+120250
Y+119250
T04
X+103243Y+109437
X+106243
X+103243Y+107687
X+106243
X+102000Y+123173
Y+124000
Y+125023
Y+125850
X+102984Y+123173
Y+125850
X+115250Y+130250
Y+131250
Y+129250
X+127500Y+136500
X+128582
X+129665
X+130809
X+131892
X+128043Y+137622
X+129125
X+130208
X+131352
X+102000Y+130673
Y+131500
Y+132523
Y+133350
X+102984Y+130673
Y+133350
X+128750Y+132250
Y+131250
Y+133250
X+140250Y+130750
Y+129667
Y+128584
Y+127440
Y+126357
X+141372Y+130206
Y+129124
Y+128041
Y+126897
X+140250Y+116750
Y+115667
Y+114584
Y+113440
Y+112357
X+141372Y+116206
Y+115124
Y+114041
Y+112897
X+125250Y+098000
X+128250
X+125250Y+096250
X+128250
T05
X+111919Y+137246
X+111013
X+110108
X+109202
X+108297
X+112372Y+138238
X+111466
X+110561
X+109655
X+108750
Y+136250
X+109655
X+112372
X+110561
X+111466
T06
X+122000Y+137500
X+118456Y+137027
X+104604Y+097135
X+114053
T07
X+100818Y+127169
X+100503Y+124511
X+100818Y+121854
X+119362Y+140649
X+119283Y+137893
X+100818Y+134669
X+100503Y+132011
X+100818Y+129354
X+137250Y+137500
X+139218Y+138759
T08
X+139218Y+136240
T09
X+100393Y+139763
X+134650Y+137062
X+124734Y+137059
X+115364Y+137246
X+105521
X+143700Y+139763
X+140812Y+123600
X+140809Y+133515
X+140812Y+109600
X+140809Y+119515
X+100393Y+096456
X+143700
T00
M30
